<svg xmlns="http://www.w3.org/2000/svg" viewBox="0 0 116.803 60.596"><defs><style>.a{fill:#f89a1d;}.b{fill:#fae466;}.c{fill:#faa41e;}.d{fill:#f9a01e;}.e{fill:#faa72c;}</style></defs><g transform="translate(9876.765 22686.945)"><path class="a" d="M414.64,508.88a13.17,13.17,0,1,1,0-13.16h14.12a26.34,26.34,0,1,0,0,13.16Z" transform="translate(-10253.68 -23155)"/><rect class="a" width="13.17" height="52.67" transform="translate(-9824.95 -22679.039)"/><path class="b" d="M489.2,490l-4.13-1.49-1.49,4.13-4.13-1.51-1.49,4.12-4.13-1.49-12.7,34.89h14" transform="translate(-10253.68 -23155)"/><path class="a" d="M441.99,475.96l19.18,52.68h14l-19.16-52.68Z" transform="translate(-10253.68 -23155)"/><rect class="c" width="4.39" height="4.39" transform="matrix(0.342, -0.94, 0.94, 0.342, -9779.846, -22661.23)"/><rect class="c" width="4.39" height="4.39" transform="matrix(0.342, -0.94, 0.94, 0.342, -9774.216, -22663.834)"/><rect class="d" width="4.39" height="4.39" transform="matrix(0.342, -0.94, 0.94, 0.342, -9778.344, -22665.35)"/><rect class="d" width="4.39" height="4.39" transform="matrix(0.342, -0.94, 0.94, 0.342, -9772.724, -22667.967)"/><rect class="d" width="4.39" height="4.39" transform="matrix(0.342, -0.94, 0.94, 0.342, -9768.605, -22666.465)"/><rect class="d" width="4.39" height="4.39" transform="matrix(0.342, -0.94, 0.94, 0.342, -9771.209, -22672.094)"/><rect class="e" width="4.39" height="4.39" transform="matrix(0.342, -0.94, 0.94, 0.342, -9775.34, -22673.6)"/><rect class="e" width="4.39" height="4.39" transform="matrix(0.342, -0.94, 0.94, 0.342, -9765.589, -22674.711)"/><rect class="e" width="4.39" height="4.39" transform="matrix(0.342, -0.94, 0.94, 0.342, -9767.308, -22682.82)"/></g></svg>