<svg xmlns="http://www.w3.org/2000/svg" viewBox="0 0 24 24"><defs><style>.a{fill:none;}.b{fill:gray;}</style></defs><g transform="translate(13003 -19701)"><g transform="translate(171 267)"><rect class="a" width="24" height="24" transform="translate(-13174 19434)"/></g><path class="b" d="M14,7.8V3H2V24.6H26V7.8ZM6.8,22.2H4.4V19.8H6.8Zm0-4.8H4.4V15H6.8Zm0-4.8H4.4V10.2H6.8Zm0-4.8H4.4V5.4H6.8Zm4.8,14.4H9.2V19.8h2.4Zm0-4.8H9.2V15h2.4Zm0-4.8H9.2V10.2h2.4Zm0-4.8H9.2V5.4h2.4Zm12,14.4H14V19.8h2.4V17.4H14V15h2.4V12.6H14V10.2h9.6Zm-2.4-9.6H18.8V15h2.4Zm0,4.8H18.8v2.4h2.4Z" transform="translate(-13005 19699)"/></g></svg>