<svg xmlns="http://www.w3.org/2000/svg" viewBox="0 0 24 24"><defs><style>.a{fill:gray;}.b{fill:none;}</style></defs><g transform="translate(-255 -454)"><path class="a" d="M17.364,11.545a3.273,3.273,0,1,0-3.273-3.273A3.259,3.259,0,0,0,17.364,11.545Zm-8.727,0A3.273,3.273,0,1,0,5.364,8.273,3.259,3.259,0,0,0,8.636,11.545Zm0,2.182C6.095,13.727,1,15,1,17.545v2.727H16.273V17.545C16.273,15,11.178,13.727,8.636,13.727Zm8.727,0c-.316,0-.676.022-1.058.055a4.6,4.6,0,0,1,2.149,3.764v2.727H25V17.545C25,15,19.905,13.727,17.364,13.727Z" transform="translate(254 453.364)"/><rect class="b" width="24" height="24" transform="translate(255 454)"/></g></svg>