<svg xmlns="http://www.w3.org/2000/svg" viewBox="0 0 24 24"><defs><style>.a{fill:#808080;}</style></defs><circle class="a" cx="1.673" cy="1.673" r="1.673" transform="translate(7.443 2.607)"/><path class="a" d="M21.378,0H2.625A2.625,2.625,0,0,0,0,2.625V21.375A2.625,2.625,0,0,0,2.625,24h7.1L5.521,20.22V11.277H7.343l.033,0a.841.841,0,0,0,.776-.391L9.268,9.092l1.716,2.971L7.2,18.613a1.062,1.062,0,0,0,.389,1.451h0a1.062,1.062,0,0,0,1.451-.389l3.834-6.641.233,3.116a.222.222,0,0,0,0,.036c0,.027,0,.056,0,.084a.869.869,0,0,0,.869.869h5.947a.869.869,0,1,0,0-1.738H15.175l-.262-3.514a1.035,1.035,0,0,0-.089-.351,1.056,1.056,0,0,0-.12-.333L12.928,7.876H14.85l1.542,2.447a.838.838,0,0,0,1.156.262h0a.838.838,0,0,0,.262-1.156L16.017,6.585a.837.837,0,0,0-.809-.384H11.743c-2.1.007-2.529.091-3.123.745l-.311.5-.02.044L6.972,9.6H5.518V1.365H18.6V15.03h1.349a1.24,1.24,0,0,1,0,2.48H18.6V20.22l3.916,3.52A2.626,2.626,0,0,0,24,21.378V2.625A2.622,2.622,0,0,0,21.378,0Z"/></svg>