<svg xmlns="http://www.w3.org/2000/svg" viewBox="0 0 24 24"><defs><style>.a{fill:gray;}.b{fill:none;}</style></defs><g transform="translate(12925 -20207)"><g transform="translate(-12940.5 20187.375)"><path class="a" d="M38.838,27.68,27.959,21.763a1.029,1.029,0,0,0-1.029,0L16.051,27.68a1.1,1.1,0,0,0-.551.956v1.544a1.106,1.106,0,0,0,1.1,1.1h1.1v8.674a1.106,1.106,0,0,0,1.1,1.1h2.168V32.311H34.024v8.674h2.168a1.106,1.106,0,0,0,1.1-1.1V31.245h1.1a1.106,1.106,0,0,0,1.1-1.1V28.6A1.546,1.546,0,0,0,38.838,27.68Z"/><rect class="a" width="8.674" height="2.168" transform="translate(23.108 34.516)"/><rect class="a" width="8.674" height="2.168" transform="translate(23.108 38.853)"/></g><g transform="translate(-13180 19797)"><rect class="b" width="24" height="24" transform="translate(255 410)"/></g></g></svg>