<svg xmlns="http://www.w3.org/2000/svg" viewBox="0 0 24 24"><defs><style>.a{fill:gray;}.b{fill:none;}</style></defs><g transform="translate(-255 -599)"><path class="a" d="M25,8.182a2.188,2.188,0,0,1-2.182,2.182,1.854,1.854,0,0,1-.556-.076L18.378,14.16a1.927,1.927,0,0,1,.076.567,2.182,2.182,0,1,1-4.364,0,1.927,1.927,0,0,1,.076-.567l-2.782-2.782a2.145,2.145,0,0,1-1.135,0L5.287,16.353a1.854,1.854,0,0,1,.076.556,2.182,2.182,0,1,1-2.182-2.182,1.854,1.854,0,0,1,.556.076L8.713,9.84a1.927,1.927,0,0,1-.076-.567,2.182,2.182,0,1,1,4.364,0,1.927,1.927,0,0,1-.076.567l2.782,2.782a2.145,2.145,0,0,1,1.135,0l3.873-3.884a1.854,1.854,0,0,1-.076-.556,2.182,2.182,0,1,1,4.364,0Z" transform="translate(254 598.455)"/><rect class="b" width="24" height="24" transform="translate(255 599)"/></g></svg>